<svg xmlns="http://www.w3.org/2000/svg" width="81" height="24" viewBox="0 0 81 24" fill="none">
    <path d="M20.3081 5.53874V0H9.23059C8.74077 0 8.27102 0.194582 7.92466 0.540938C7.57831 0.887293 7.38373 1.35707 7.38373 1.84689V3.69185C7.38373 4.18135 7.1894 4.65081 6.84345 4.99712C6.4975 5.34342 6.02823 5.53824 5.53874 5.53874H1.84499C1.35549 5.53924 0.886224 5.73402 0.540274 6.08032C0.194324 6.42662 -2.52259e-07 6.89609 0 7.38558V11.0775C-2.52259e-07 11.567 0.194324 12.0364 0.540274 12.3827C0.886224 12.729 1.35549 12.9238 1.84499 12.9243H5.53874C6.02806 12.9243 6.49734 13.1187 6.84334 13.4647C7.18934 13.8107 7.38373 14.28 7.38373 14.7693C7.38373 15.2588 7.1894 15.7283 6.84345 16.0746C6.4975 16.4209 6.02823 16.6157 5.53874 16.6162H1.84499C1.35582 16.6167 0.886834 16.8112 0.540938 17.1571C0.195042 17.503 0.000496368 17.972 0 18.4612V23.9999H5.53874C6.02791 23.9994 6.49689 23.8049 6.84279 23.459C7.18869 23.1131 7.38323 22.6441 7.38373 22.1549V20.3081C7.38373 19.8183 7.57831 19.3485 7.92466 19.0021C8.27102 18.6558 8.74077 18.4612 9.23059 18.4612H14.1525C14.3949 18.4614 14.635 18.4139 14.8591 18.3213C15.0831 18.2287 15.2868 18.0928 15.4583 17.9215C15.6298 17.7501 15.7659 17.5466 15.8587 17.3227C15.9516 17.0987 15.9993 16.8587 15.9993 16.6162V12.9243C15.9993 12.4345 15.8048 11.9648 15.4584 11.6184C15.112 11.2721 14.6423 11.0775 14.1525 11.0775H9.23059C8.74077 11.0775 8.27102 10.8829 7.92466 10.5365C7.57831 10.1902 7.38373 9.72041 7.38373 9.23059C7.38373 8.98814 7.43152 8.74809 7.52435 8.52413C7.61719 8.30016 7.75326 8.09668 7.92478 7.92533C8.0963 7.75398 8.29991 7.61813 8.52397 7.52552C8.74803 7.43291 8.98815 7.38533 9.23059 7.38558H18.4612C18.951 7.38558 19.4208 7.191 19.7671 6.84464C20.1135 6.49829 20.3081 6.02856 20.3081 5.53874Z" fill="#EF4444"/>
    <path fill-rule="evenodd" clip-rule="evenodd" d="M41.9584 9.59766H44.9516V23.8365H41.9584V9.59766ZM33.0165 12.8986V16.4483H39.2332V18.9426H33.0165V23.8353H29.9082V10.4043H40.0582V12.8986H33.0165ZM47.6938 21.4278C48.1804 22.2332 48.8812 22.8875 49.7181 23.3177C50.6271 23.7646 51.6264 23.997 52.6393 23.997C53.6522 23.997 54.6516 23.7646 55.5606 23.3177C56.3928 22.8845 57.0898 22.2306 57.5752 21.4278C58.0529 20.5919 58.3042 19.6459 58.3042 18.6831C58.3042 17.7203 58.0529 16.7742 57.5752 15.9383C57.0903 15.135 56.3932 14.481 55.5606 14.0484C54.6516 13.6015 53.6522 13.3691 52.6393 13.3691C51.6264 13.3691 50.6271 13.6015 49.7181 14.0484C48.8808 14.478 48.1798 15.1325 47.6938 15.9383C47.2161 16.7742 46.9648 17.7203 46.9648 18.6831C46.9648 19.6459 47.2161 20.5919 47.6938 21.4278ZM55.2728 18.6821C55.2715 19.5583 55.0253 20.2522 54.5341 20.7639V20.7543C54.2928 21.012 53.9996 21.2156 53.6738 21.3515C53.348 21.4874 52.997 21.5527 52.6441 21.5429C52.2906 21.5537 51.9387 21.4899 51.6114 21.3557C51.2841 21.2215 50.9888 21.0198 50.7446 20.7639C50.2457 20.251 49.9963 19.557 49.9963 18.6821C49.9963 17.8071 50.2457 17.1139 50.7446 16.6022C50.9888 16.3463 51.2841 16.1446 51.6114 16.0104C51.9387 15.8762 52.2906 15.8124 52.6441 15.8232C52.9963 15.8122 53.3468 15.8759 53.6726 16.0102C53.9983 16.1445 54.2919 16.3462 54.5341 16.6022C55.0278 17.1126 55.274 17.8058 55.2728 18.6821ZM76.5907 13.5117L72.8492 23.8364H69.9711L67.6494 17.4259L65.251 23.8364H62.373L58.6506 13.5117H61.4712L63.9079 20.4958L66.4406 13.5117H68.9734L71.4293 20.4958L73.9428 13.5117H76.5907ZM80.9845 9.59766H77.9913V23.8365H80.9845V9.59766Z" fill="#0F172A"/>
</svg>